# xmcd
#
# Track frame offsets:
#	150
#	12525
#	28350
#	45075
#	61350
#	75000
#	89100
#	104400
#	118200
#	135600
#	147975
#	163800
#	180525
#	196800
#	210450
#	224550
#	239850
#	253650
#	271050
#
# Disc length: 3849 seconds
#
# Revision: 2
# Processed by: cddbd v1.5.1PL0 Copyright (c) Steve Scherf et al.
# Submitted via: audiograbber 1.82.02
#
DISCID=1a0f0713
DTITLE=Country Hits Monthly - January 1997 - CHM9701
DYEAR=1997
DGENRE=Country
TTITLE0=Chesnutt, Mark w/vocal - It's A Little Too Late
TTITLE1=Sharp, Kevin w/vocal - Nobody Knows
TTITLE2=Black, Clint w/vocal - Half Way Up
TTITLE3=Brooks and Dunn w/vocal - Man This Lonely, A
TTITLE4=Raye, Collin w/vocal - What If Jesus Comes Back Like That
TTITLE5=White, Bryan w/vocal - That's Another Song
TTITLE6=Gill, Vince w/vocal - Pretty Little Adriana
TTITLE7=Trevino, Rick w/vocal - Running Out Of Reasons To Run
TTITLE8=Seals, Brady w/vocal - Another You Another Me
TTITLE9=Chesnutt, Mark - It's A Little Too Late
TTITLE10=Sharp, Kevin - Nobody Knows
TTITLE11=Black, Clint - Half Way Up
TTITLE12=Brooks and Dunn - A Man This Lonely
TTITLE13=Raye, Collin - What If Jesus Came Back Like That
TTITLE14=White, Bryan - That's Another Song
TTITLE15=Gill, Vince - Pretty Little Adriana
TTITLE16=Trevino, Rick - Running Out Of Reasons To Run
TTITLE17=Seals, Brady - Another You, Another Me
TTITLE18=Seals, Brady (Duet) - Another You, Another Me (Duet)
EXTD=
EXTT0=
EXTT1=
EXTT2=
EXTT3=
EXTT4=
EXTT5=
EXTT6=
EXTT7=
EXTT8=
EXTT9=
EXTT10=
EXTT11=
EXTT12=
EXTT13=
EXTT14=
EXTT15=
EXTT16=
EXTT17=
EXTT18=
PLAYORDER=
